<?xml version="1.0" standalone="no"?>
<!DOCTYPE svg PUBLIC "-//W3C//DTD SVG 20010904//EN"
 "http://www.w3.org/TR/2001/REC-SVG-20010904/DTD/svg10.dtd">
<svg version="1.0" xmlns="http://www.w3.org/2000/svg"
 width="512.000000pt" height="512.000000pt" viewBox="0 0 512.000000 512.000000"
 preserveAspectRatio="xMidYMid meet">
<metadata>
Created by potrace 1.14, written by Peter Selinger 2001-2017
</metadata>
<g transform="translate(0.000000,512.000000) scale(0.100000,-0.100000)"
fill="#000000" stroke="none">
<path d="M0 2560 l0 -2560 2560 0 2560 0 0 2560 0 2560 -2560 0 -2560 0 0
-2560z m4420 2379 c-5 -19 -16 -68 -25 -109 -93 -424 -455 -1155 -837 -1690
-122 -171 -324 -389 -409 -441 l-46 -29 47 -143 c26 -78 71 -214 99 -302 56
-174 83 -251 168 -480 50 -134 75 -195 145 -355 75 -170 206 -406 283 -508 50
-65 152 -168 200 -202 40 -28 152 -70 185 -70 50 0 163 -106 251 -237 38 -57
49 -81 49 -112 0 -53 -36 -147 -63 -166 -45 -31 -131 -7 -171 49 l-21 28 30
22 c61 43 85 76 85 116 0 51 -22 67 -102 75 -38 4 -68 5 -68 3 0 -3 7 -19 16
-36 13 -27 13 -36 2 -59 -24 -50 -97 -37 -98 18 0 16 -30 113 -57 186 -11 29
-28 50 -57 69 -227 147 -544 709 -808 1434 -11 30 -24 64 -28 75 -21 49 -145
420 -175 522 l-6 23 -42 -21 c-23 -12 -72 -41 -110 -65 -88 -57 -143 -85 -269
-135 -345 -137 -829 -254 -1328 -320 -194 -25 -606 -47 -621 -32 -8 8 24 17
113 33 132 24 731 145 888 179 171 38 294 64 328 68 17 3 32 10 32 15 0 7 -30
8 -87 4 -49 -4 -207 -11 -353 -17 -146 -5 -321 -12 -390 -15 -141 -7 -154 6
-25 25 140 21 203 31 270 41 36 5 94 14 130 20 36 5 95 15 132 20 38 6 94 15
126 20 31 6 83 14 115 20 31 5 89 14 127 20 275 44 280 47 65 49 -273 2 -440
20 -440 47 0 8 3 14 8 14 4 0 59 5 122 10 63 6 189 15 280 21 91 6 177 12 193
14 15 1 51 4 80 5 l52 2 -45 10 c-25 5 -65 7 -90 5 -60 -6 -406 10 -500 23
-209 28 -331 49 -485 80 -27 6 -54 15 -59 20 -12 12 -11 12 134 0 365 -32 856
-44 1062 -26 69 6 130 14 133 18 8 8 -36 19 -140 38 -38 6 -86 16 -105 20 -19
5 -55 13 -80 19 -196 44 -421 105 -447 120 -17 10 -17 10 3 11 11 0 85 -11
165 -24 180 -31 646 -79 574 -59 -11 3 -24 9 -30 13 -5 4 -50 24 -100 43 -134
52 -383 170 -510 240 -131 74 -149 85 -153 96 -6 18 12 13 120 -30 57 -23 114
-45 128 -49 14 -5 63 -22 110 -40 214 -79 573 -180 588 -165 4 4 -6 18 -23 32
-16 15 -79 72 -140 128 -60 56 -144 132 -185 169 -41 37 -76 71 -78 77 -14 38
94 -36 248 -171 108 -95 229 -190 243 -190 25 0 -22 125 -102 275 -74 138
-236 404 -401 658 -45 70 -80 131 -76 134 15 15 175 -166 302 -342 79 -109
244 -359 244 -369 0 -2 17 -33 38 -67 40 -67 103 -193 122 -244 17 -46 27 -14
18 58 -13 94 -40 352 -57 542 -5 55 -12 119 -16 141 -7 43 5 64 22 41 5 -6 19
-55 31 -107 20 -91 28 -142 53 -330 64 -491 92 -502 65 -26 -32 560 -36 661
-30 729 8 86 25 87 52 4 50 -152 72 -388 73 -792 0 -132 4 -249 8 -259 7 -19
8 -19 15 0 7 18 11 49 35 274 20 187 51 540 71 815 5 77 14 200 20 274 5 74
10 173 10 222 0 89 12 119 30 77 10 -25 41 -177 62 -303 9 -54 13 -180 13
-385 -1 -264 -4 -325 -23 -455 -19 -124 -55 -317 -79 -422 -8 -34 10 -28 26
10 8 17 30 66 49 107 39 85 109 264 153 390 92 261 224 668 279 860 12 41 26
79 30 84 30 31 17 -230 -19 -409 -28 -136 -45 -198 -89 -330 -36 -108 -63
-182 -92 -247 -5 -13 -30 -72 -55 -131 -25 -59 -76 -170 -113 -245 -37 -75
-68 -140 -70 -144 -2 -5 0 -8 5 -8 24 1 469 722 685 1110 14 25 34 61 45 80
122 215 255 485 325 660 15 37 30 4 18 -41z"/>
</g>
</svg>
